<svg id="Camada_1" data-name="Camada 1" xmlns="http://www.w3.org/2000/svg" viewBox="0 0 200 100"><defs><style>.cls-1{fill:#eb4a3b;}</style></defs><title>icons</title><path class="cls-1" d="M5.64,60.08l9.82-22a3.8,3.8,0,0,1,3.62-2.42h.41A4,4,0,0,1,23.12,38l9.81,22a4.06,4.06,0,0,1,.27,1.21,3,3,0,0,1-3,3,3,3,0,0,1-3-2.15L25.4,57.66H12.9l-2,4.57a2.88,2.88,0,0,1-2.69,2,2.85,2.85,0,0,1-2.83-2.83A4.08,4.08,0,0,1,5.64,60.08ZM23,52.29,19.08,43l-3.89,9.27H23Z"/><path class="cls-1" d="M36.83,39a3,3,0,0,1,3.09-3.09h8.33C55,35.89,59,39.78,59,45.56v.14c0,6.45-5.1,9.81-11.29,9.81H43V61a3.09,3.09,0,1,1-6.18,0ZM48,50.13c3.09,0,4.84-1.88,4.84-4.3V45.7c0-2.82-1.88-4.3-5-4.3H43.14V50Z"/><path class="cls-1" d="M61.42,50h0c0-8.06,6.32-14.52,14.92-14.52s14.92,6.46,14.92,14.39V50A14.55,14.55,0,0,1,76.34,64.52C67.74,64.52,61.42,58.06,61.42,50Zm23.26,0h0c0-4.84-3.5-8.87-8.47-8.87a8.42,8.42,0,0,0-8.47,8.74V50c0,4.84,3.5,8.87,8.47,8.87A8.52,8.52,0,0,0,84.68,50Z"/><path class="cls-1" d="M96,38.84a3.09,3.09,0,0,1,6.18,0V61.16a3.09,3.09,0,0,1-6.18,0Z"/><path class="cls-1" d="M106.59,60.08l9.81-22A3.81,3.81,0,0,1,120,35.62h.4A4,4,0,0,1,124.06,38l9.81,22a3.77,3.77,0,0,1,.27,1.21,3,3,0,0,1-3,3,3,3,0,0,1-3-2.15l-2-4.44H113.84l-2,4.57A3,3,0,0,1,109,64.11a2.84,2.84,0,0,1-2.83-2.82A2.17,2.17,0,0,1,106.59,60.08Zm17.34-7.79L120,43l-3.9,9.28Z"/><path class="cls-1" d="M140.19,57.39a3.35,3.35,0,0,1,3.49,3.36v.14a3.5,3.5,0,0,1-7,0v-.14A3.36,3.36,0,0,1,140.19,57.39Z"/><path class="cls-1" d="M164.52,50.67c.67,2,.27,6.18.27,7.39A8.59,8.59,0,0,1,166.67,57a15.44,15.44,0,0,0,2.15-1.08c.8-.4,1.48-.8,2.28-1.21a12.25,12.25,0,0,0,2.42-1.61v5.65a24.15,24.15,0,0,1-3.63,2.15,39.37,39.37,0,0,1-4.3,1.74A25.15,25.15,0,0,1,161,63.84a24.28,24.28,0,0,1-4.3.41A17.13,17.13,0,0,1,154,64a6.61,6.61,0,0,1-2.28-.81,4.17,4.17,0,0,1-1.61-1.48,4,4,0,0,1-.68-2.15c-.26,0-.4.14-.67.14h-1.48c-.26,0-.4-.14-.53-.14a1.74,1.74,0,0,1-.41-.53,2.4,2.4,0,0,1-.13-1.08,2.49,2.49,0,0,1,.27-1.08,2.38,2.38,0,0,1,.67-.94,4,4,0,0,1,.81-.67l.53-.54c.94-.8,1.75-1.47,2.29-2a24.82,24.82,0,0,0,1.75-1.88c.53-.68,1.07-1.35,1.34-1.75a8.31,8.31,0,0,0,1.21-1.61c.4-.68,1.08-1.35,1.75-2.29s1.48-2,2.55-3.36a5.87,5.87,0,0,0,.67-.94,6,6,0,0,1,.94-.81,4.31,4.31,0,0,1,1.08-.53,3.84,3.84,0,0,1,1.34-.27,6.13,6.13,0,0,1,1.89.27,1.71,1.71,0,0,1,.94.67c.13.27.26.54.4.8v.68a2.14,2.14,0,0,1-.54,1.34,10.56,10.56,0,0,1-1.07,1.48A8.4,8.4,0,0,0,164,45.7c-.4.4-.54.67-.54.81a5.24,5.24,0,0,0,.14,1.47c.13.41.13.81.27,1.21a3.75,3.75,0,0,1,.67,1.48m-5.38-.13-7,7.26a1.16,1.16,0,0,1,.67.4l.81.81a8,8,0,0,0,1.08.8,2.69,2.69,0,0,0,1.47.41A5.18,5.18,0,0,0,157.8,60a7.64,7.64,0,0,0,1.07-.81,4.6,4.6,0,0,0,.54-1.21,16.72,16.72,0,0,0,.4-4.57"/><path class="cls-1" d="M178.5,64a9,9,0,0,1-4-.81,8.27,8.27,0,0,1-3-2.28,9.89,9.89,0,0,1-1.75-3.36,14,14,0,0,1-.54-4,11.65,11.65,0,0,1,.54-3.37,32,32,0,0,1,1.08-3.36A25.71,25.71,0,0,1,172.18,44a8.78,8.78,0,0,1,2-2.42,10.06,10.06,0,0,1,2.55-1.61,8,8,0,0,1,3.09-.67,7.85,7.85,0,0,1,2.56.4,7,7,0,0,1,2.15,1.21,5.42,5.42,0,0,1,1.34,2,7.78,7.78,0,0,1,.54,2.55,7,7,0,0,1-1.08,3.36A14.43,14.43,0,0,1,182.93,52a14.68,14.68,0,0,1-3.22,2.42,18,18,0,0,1-4,1.61,7.09,7.09,0,0,0,.81,1.07,3.75,3.75,0,0,0,.81.68l.8.4c.27,0,.54.13.94.13a10.18,10.18,0,0,0,3.23-.53c1.08-.41,2.15-.94,3.23-1.48a22.76,22.76,0,0,0,2.95-1.88,20,20,0,0,0,2.42-2l3.23,3.23a33.6,33.6,0,0,1-4.71,4.16,13.12,13.12,0,0,1-2.28,1.48,22.45,22.45,0,0,1-2.56,1.34,20.72,20.72,0,0,1-2.82.94A14.06,14.06,0,0,1,178.5,64Zm-3.36-11.83a6.55,6.55,0,0,0,2-.4,8.31,8.31,0,0,0,2-1.21,8.12,8.12,0,0,0,1.75-1.88,4.47,4.47,0,0,0,.94-2,3.36,3.36,0,0,0-.41-1.75,1.1,1.1,0,0,0-1.07-.67,4.25,4.25,0,0,0-1.88.4,3.46,3.46,0,0,0-1.35,1.08,3.16,3.16,0,0,0-.8,1.48,17.22,17.22,0,0,0-.68,2,6.71,6.71,0,0,0-.4,1.88A2.74,2.74,0,0,0,175.14,52.15Z"/><circle class="cls-1" cx="192.34" cy="54.03" r="2.28"/></svg>