<svg id="Camada_1" data-name="Camada 1" xmlns="http://www.w3.org/2000/svg" viewBox="0 0 170.02 44.07"><defs><style>.cls-1,.cls-2{fill:#fff;}.cls-2{font-size:5.17px;font-family:Intro, Intro ;}.cls-3{font-family:MyriadPro-Regular, Myriad Pro;}</style></defs><title>ícones</title><path class="cls-1" d="M39.26,35.59h4.48V20.94h13V17.18h-13V7.59H58.42V3.86H39.26Z"/><path class="cls-1" d="M165.76,31.91a18.11,18.11,0,0,1-6.29.32A4.31,4.31,0,0,1,155.7,29a18.07,18.07,0,0,1-.63-4.05c-.08-4.05,0-8.1,0-12.15v-1h-4.25c0,.28-.05.49-.05.7,0,4.24,0,8.48,0,12.71a21.79,21.79,0,0,0,.44,4c.79,4,3.51,6.36,7.58,6.79a36.52,36.52,0,0,0,10.68-.93c.64-.12.57-.51.57-.94V11.79h-4.26Z"/><path class="cls-1" d="M128,31.52c-1.46.29-2.84.67-4.24.81-3,.29-4.53-1.06-4.82-4,0-.14,0-.27,0-.41q0-6.07-.08-12.14a2.3,2.3,0,0,1,.08-.44h8.9v-3.6h-9V4.33l-4.24.75v1c0,6.58,0,13.17,0,19.76,0,1.1.06,2.21.16,3.31.33,3.52,2,5.81,4.86,6.53a12.43,12.43,0,0,0,5.94.15c1.11-.26,2.2-.63,3.3-1-.27-1.16-.5-2.12-.73-3.09A3.23,3.23,0,0,0,128,31.52Z"/><path class="cls-1" d="M71.39,32.51a5.19,5.19,0,0,0-.52-.09c-2.22-.3-2.94-1.09-3-3.33,0-.16,0-.32,0-.48q0-13.83,0-27.64c0-.3,0-.61,0-1-1.2.21-2.28.46-3.37.56-.75.08-.89.39-.89,1.08q0,13.65,0,27.3c0,.41,0,.82,0,1.22.34,4.15,3.23,6.5,7.26,5.82Z"/><path class="cls-1" d="M146.15,15.65c.26-1.3.49-2.5.72-3.71l-.4-.12a22.89,22.89,0,0,0-12.36.64,1,1,0,0,0-.82,1.13c0,7.05,0,14.1,0,21.14,0,.29,0,.57,0,.84h4.23v-20A14.48,14.48,0,0,1,146.15,15.65Z"/><path class="cls-1" d="M76.2,11.79v23.8h4.19V11.79Z"/><path class="cls-1" d="M81,4.74a2.72,2.72,0,0,0-2.68-2.92,2.75,2.75,0,0,0-2.83,2.71,2.68,2.68,0,0,0,2.7,2.9A2.64,2.64,0,0,0,81,4.74Z"/><path class="cls-1" d="M92,34.75v9.32H87.82c0-.28,0-.54,0-.8q0-15,0-30c0-.61.14-.88.78-1a31.57,31.57,0,0,1,10.1-.94,11,11,0,0,1,9.88,9.26,16.84,16.84,0,0,1-.61,8.62,9.88,9.88,0,0,1-10,7A12.24,12.24,0,0,1,92.78,35l-.51-.25A2,2,0,0,0,92,34.75Zm0-11.65c0,2.27,0,4.54,0,6.8a1,1,0,0,0,.57,1,17.68,17.68,0,0,0,3,1.22c3.57.82,7.07-.43,8.21-4.33a13.73,13.73,0,0,0,.18-7.36,6.74,6.74,0,0,0-6-5.33,51.13,51.13,0,0,0-5.23.25c-.56,0-.7.31-.69.83C92.06,18.52,92.05,20.81,92.05,23.1Z"/><path class="cls-1" d="M39.26,35.59V3.86H58.42V7.59H43.77v9.59h13v3.76h-13V35.59Z"/><path class="cls-1" d="M165.76,31.91V11.79H170V34.15c0,.43.07.82-.57.94a36.52,36.52,0,0,1-10.68.93c-4.07-.43-6.79-2.78-7.58-6.79a21.79,21.79,0,0,1-.44-4c-.06-4.23,0-8.47,0-12.71,0-.21,0-.42.05-.7H155v1c0,4,0,8.1,0,12.15A18.07,18.07,0,0,0,155.7,29a4.31,4.31,0,0,0,3.77,3.22A18.11,18.11,0,0,0,165.76,31.91Z"/><path class="cls-1" d="M128,31.52a3.23,3.23,0,0,1,.1.32c.23,1,.46,1.93.73,3.09-1.1.32-2.19.69-3.3,1a12.43,12.43,0,0,1-5.94-.15c-2.86-.72-4.53-3-4.86-6.53-.1-1.1-.16-2.21-.16-3.31,0-6.59,0-13.18,0-19.76v-1l4.24-.75v7.39h9v3.6h-8.9a2.3,2.3,0,0,0-.08.44q0,6.07.08,12.14c0,.14,0,.27,0,.41.29,3,1.85,4.31,4.82,4C125.15,32.19,126.53,31.81,128,31.52Z"/><path class="cls-1" d="M71.39,32.51,70.81,36c-4,.68-6.92-1.67-7.26-5.82,0-.4,0-.81,0-1.22q0-13.65,0-27.3c0-.69.14-1,.89-1.08C65.48.46,66.56.21,67.76,0c0,.36,0,.67,0,1q0,13.81,0,27.64c0,.16,0,.32,0,.48.09,2.24.81,3,3,3.33A5.19,5.19,0,0,1,71.39,32.51Z"/><path class="cls-1" d="M146.15,15.65a14.48,14.48,0,0,0-8.57,0v20h-4.23c0-.27,0-.55,0-.84,0-7,0-14.09,0-21.14a1,1,0,0,1,.82-1.13,22.89,22.89,0,0,1,12.36-.64l.4.12C146.64,13.15,146.41,14.35,146.15,15.65Z"/><path class="cls-1" d="M76.2,11.79h4.19v23.8H76.2Z"/><path class="cls-1" d="M81,4.74a2.64,2.64,0,0,1-2.81,2.69,2.68,2.68,0,0,1-2.7-2.9,2.75,2.75,0,0,1,2.83-2.71A2.72,2.72,0,0,1,81,4.74Z"/><path class="cls-1" d="M32,19.74a16,16,0,1,1-16.49-16A16,16,0,0,1,32,19.74ZM8.44,27.81a4.74,4.74,0,0,0,2-1.07.41.41,0,0,1,.53-.06,10.36,10.36,0,0,0,5.93,1.18,9.65,9.65,0,0,0,6.73-3.29,7,7,0,0,0,1.72-6.12,7.84,7.84,0,0,0-3.7-5.24A10.55,10.55,0,0,0,8.49,14.76a7.28,7.28,0,0,0-2,5,7.1,7.1,0,0,0,1.93,4.94A1.44,1.44,0,0,1,8.83,26C8.72,26.6,8.58,27.19,8.44,27.81Z"/><text class="cls-2" transform="translate(8.49 21.44)">PT<tspan class="cls-3" x="6.49" y="0">-</tspan><tspan x="8.08" y="0">BR</tspan></text></svg>