<svg id="Camada_1" data-name="Camada 1" xmlns="http://www.w3.org/2000/svg" viewBox="0 0 2557 846"><defs><style>.cls-1{fill:#fff;}</style></defs><title>TITLE</title><path class="cls-1" d="M1301.17,581c14.4,7.76,8.19,30.51-11.68,30.51a25.34,25.34,0,0,1,0-50.67l.79,0A36.78,36.78,0,0,0,1278.5,559c-23.23,0-42.07,21.72-42.07,48.51S1255.27,656,1278.5,656s42.07-21.72,42.07-48.52C1320.57,598.34,1315.57,582.1,1301.17,581Z"/><path class="cls-1" d="M633.16,435.81h-89L530.9,464.2H474.45v-8.39L576.06,235.48H600.9L702.84,455.81v8.39H646.38ZM588.32,327.1l-25.49,59.35h51.62Z"/><path class="cls-1" d="M923.16,455.81v8.39H858.65l-38.71-66.46h-30V464.2H732.19V238.39h99c88.71.32,104.84,107.1,47.74,145.81ZM831.23,290c-13.55-.32-27.75,0-41.29,0v56.45h41.29C862.52,346.45,864.13,290.32,831.23,290Z"/><path class="cls-1" d="M935.75,290V238.39h167.74V290h-55.16V464.2h-57.1V290Z"/><path class="cls-1" d="M1288.34,346.78c18.38,9.35,27.09,26.13,27.09,46.13-.32,39.35-24.19,71.29-70.32,71.29H1139.3V238.39h96.45c39,0,70.33,30.32,70.33,69.35C1306.08,321.29,1299.3,337.74,1288.34,346.78ZM1195.11,290v36.45h36.45c22.9,0,22.9-36.45-.32-36.45Zm0,84.52v38.39h46.13c23.22,0,22.9-38.39-.32-38.39Z"/><path class="cls-1" d="M1346.72,351.61c0-156.13,231.62-156.13,231.62,0C1578.34,508.07,1346.72,508.07,1346.72,351.61Zm172.59,0c0-81.29-113.23-81.29-113.23,0C1406.08,433.55,1519.31,433.55,1519.31,351.61Z"/><path class="cls-1" d="M1608,351.61c0-156.13,231.62-156.13,231.62,0C1839.64,508.07,1608,508.07,1608,351.61Zm172.59,0c0-81.29-113.23-81.29-113.23,0C1667.38,433.55,1780.61,433.55,1780.61,351.61Z"/><path class="cls-1" d="M1883.52,464.2V238.39h58.71v85.48h4.19c57.74,0,54.84-43.22,54.84-85.48h59.36c0,46.13,1.29,88.71-43.55,117.42l61.29,99.36v9h-64.2l-49.67-87.42c-7.75,1.29-14.84,1.29-22.26,1.29V464.2Z"/><polygon class="cls-1" points="1114.41 588.71 580 588.71 580 588.77 600.39 604.39 1134.87 604.39 1114.41 588.71"/><polygon class="cls-1" points="1162.59 625.61 1154.63 619.52 620.14 619.52 628.61 626 1162.59 626 1162.59 625.61"/><polygon class="cls-1" points="1442.59 588.71 1977 588.71 1977 588.77 1956.61 604.39 1422.13 604.39 1442.59 588.71"/><polygon class="cls-1" points="1394.41 625.61 1402.37 619.52 1936.86 619.52 1928.39 626 1394.41 626 1394.41 625.61"/></svg>