<svg id="Camada_1" data-name="Camada 1" xmlns="http://www.w3.org/2000/svg" viewBox="0 0 2557 846"><defs><style>.cls-1{fill:#fff;}</style></defs><title>TITLE</title><path class="cls-1" d="M328.15,439.31h-89L225.89,467.7H169.44v-8.39L271.05,239h24.84L397.83,459.31v8.39H341.38ZM283.31,330.6,257.83,390h51.61Z"/><path class="cls-1" d="M653,245.44l38.39,120h1l10-38.39,28.71-85.16h57.42v8.71L710.1,470H676.87L640.74,361.24h-1L603.64,470H571.71L492.35,250.6v-8.71h58.39l29,85.16,10,38.39h1l37.74-120Z"/><path class="cls-1" d="M963.33,293.5H879.78v31.94h76.77v51.29H879.78v39.68h86.45V467.7H822.36V241.89h141Z"/><path class="cls-1" d="M1165,350.28c18.38,9.35,27.09,26.13,27.09,46.13-.32,39.35-24.19,71.29-70.32,71.29H1015.91V241.89h96.46c39,0,70.32,30.32,70.32,69.35C1182.69,324.79,1175.91,341.24,1165,350.28Zm-93.23-56.78v37.1h36.45c22.9,0,22.9-37.1-.32-37.1Zm0,84.52v38.39h46.13c23.22,0,22.9-38.39-.32-38.39Z"/><path class="cls-1" d="M1339.47,239.31c46.77,0,97.42,25.48,106.13,85.8h-56.78c-8.06-22.9-25.16-33.22-49.35-33.22-33.88,0-56.13,25.48-56.13,62.9,0,33.23,21.93,62.26,56.13,62.58,24.51,0,44.19-12.25,50.32-36.45h56.77c-8.38,63.87-59,89-107.09,89-57.42.32-115.49-38.39-115.81-115.17C1224,278,1282.05,239.31,1339.47,239.31Z"/><path class="cls-1" d="M1476.89,355.11c0-156.13,231.62-156.13,231.62,0C1708.51,511.57,1476.89,511.57,1476.89,355.11Zm172.58,0c0-81.29-113.22-81.29-113.22,0C1536.25,437.05,1649.47,437.05,1649.47,355.11Z"/><path class="cls-1" d="M1951.42,241.24h20.65V467.7h-59V367.05L1865,417.37h-6.45l-47.75-50.32V467.7h-59V241.24H1773l88.39,98.07Z"/><path class="cls-1" d="M2125.29,417.05V467.7H2010.78V417.05h28.71V292.21H2013V241.89h110v50.32h-26.45V417.05Z"/><path class="cls-1" d="M2265.3,239.31c46.77,0,97.42,25.48,106.13,85.8h-56.78c-8.06-22.9-25.16-33.22-49.35-33.22-33.88,0-56.13,25.48-56.13,62.9,0,33.23,21.93,62.26,56.13,62.58,24.51,0,44.19-12.25,50.32-36.45h56.77c-8.38,63.87-59,89-107.09,89-57.42.32-115.49-38.39-115.81-115.17C2149.81,278,2207.88,239.31,2265.3,239.31Z"/><path class="cls-1" d="M1301.17,577.54c14.4,7.76,8.18,30.51-11.68,30.51a25.34,25.34,0,0,1,0-50.67l.79,0a36.78,36.78,0,0,0-11.78-1.93c-23.23,0-42.07,21.72-42.07,48.51s18.84,48.52,42.07,48.52,42.07-21.72,42.07-48.52C1320.57,594.84,1315.57,578.6,1301.17,577.54Z"/><polygon class="cls-1" points="1114.41 585.21 580 585.21 580 585.27 600.39 600.89 1134.87 600.89 1114.41 585.21"/><polygon class="cls-1" points="1162.59 622.11 1154.63 616.02 620.14 616.02 628.61 622.5 1162.59 622.5 1162.59 622.11"/><polygon class="cls-1" points="1442.59 585.21 1977 585.21 1977 585.27 1956.61 600.89 1422.13 600.89 1442.59 585.21"/><polygon class="cls-1" points="1394.41 622.11 1402.37 616.02 1936.86 616.02 1928.39 622.5 1394.41 622.5 1394.41 622.11"/></svg>