<svg id="Camada_1" data-name="Camada 1" xmlns="http://www.w3.org/2000/svg" viewBox="0 0 2557 846"><defs><style>.cls-1{fill:#fff;}</style></defs><title>TITLE</title><path class="cls-1" d="M594.13,439.31h-89L491.87,467.7H435.41v-8.39L537,239h24.84L663.8,459.31v8.39H607.35ZM549.29,330.6,523.8,390h51.62Z"/><path class="cls-1" d="M912.52,439.31h-89L810.26,467.7H753.81v-8.39L855.42,239h24.84L982.2,459.31v8.39H925.75ZM867.68,330.6,842.2,390h51.61Z"/><path class="cls-1" d="M1131.24,391.57V241.89h55.16V392.54c0,49.67-42.9,78.38-89.36,78.38-46.13,0-89.67-28.71-89.67-78.38V241.89h55.16V391.57c0,18.38,17.74,27.42,34.51,27.42S1131.24,410,1131.24,391.57Z"/><path class="cls-1" d="M1220.27,293.5V241.89H1388V293.5h-55.17V467.7h-57.09V293.5Z"/><path class="cls-1" d="M1410,355.11c0-156.13,231.61-156.13,231.61,0C1641.57,511.57,1410,511.57,1410,355.11Zm172.58,0c0-81.29-113.23-81.29-113.23,0C1469.31,437.05,1582.54,437.05,1582.54,355.11Z"/><path class="cls-1" d="M1875.77,459.31v8.39h-64.51l-38.71-66.46h-30V467.7H1684.8V241.89h99c88.71.32,104.84,107.1,47.74,145.81ZM1783.84,293.5c-13.55-.32-27.75,0-41.29,0V350h41.29C1815.13,350,1816.74,293.82,1783.84,293.5Z"/><path class="cls-1" d="M2051.26,439.31h-89L1949,467.7h-56.45v-8.39L1994.16,239H2019l101.94,220.33v8.39h-56.45ZM2006.42,330.6,1980.94,390h51.61Z"/><path class="cls-1" d="M1301.17,577.54c14.4,7.76,8.19,30.51-11.68,30.51a25.34,25.34,0,0,1,0-50.67l.79,0a36.78,36.78,0,0,0-11.78-1.93c-23.23,0-42.07,21.72-42.07,48.51s18.84,48.52,42.07,48.52,42.07-21.72,42.07-48.52C1320.57,594.84,1315.57,578.6,1301.17,577.54Z"/><polygon class="cls-1" points="1114.41 585.21 580 585.21 580 585.27 600.39 600.89 1134.87 600.89 1114.41 585.21"/><polygon class="cls-1" points="1162.59 622.11 1154.63 616.02 620.14 616.02 628.61 622.5 1162.59 622.5 1162.59 622.11"/><polygon class="cls-1" points="1442.59 585.21 1977 585.21 1977 585.27 1956.61 600.89 1422.13 600.89 1442.59 585.21"/><polygon class="cls-1" points="1394.41 622.11 1402.37 616.02 1936.86 616.02 1928.39 622.5 1394.41 622.5 1394.41 622.11"/></svg>