<svg id="Camada_1" data-name="Camada 1" xmlns="http://www.w3.org/2000/svg" viewBox="0 0 2557 846"><defs><style>.cls-1{fill:#fff;}</style></defs><title>TITLE</title><path class="cls-1" d="M659.65,224.27q68.28,0,116.55,48.26t48.27,116.55q0,68.28-48.27,116.55T659.65,553.89h-82.4V224.27Zm0,259q39.09,0,66.63-27.55t27.55-66.63q0-39.07-27.55-66.63T659.65,294.9H647.88V483.26Z"/><path class="cls-1" d="M930.42,483.26h117.72l-23.54,70.63H859.78V224.27H1024.6V294.9H930.42v58.86h94.18l-23.55,70.64H930.42Z"/><path class="cls-1" d="M1142.32,371.66V553.89h-70.63V224.27h79.58L1236.5,406.5V247.81l70.64-23.54V553.89h-79.59Z"/><path class="cls-1" d="M1495.49,294.9v259h-70.63v-259h-94.18l23.55-70.63h211.9V294.9Z"/><path class="cls-1" d="M1683.85,424.4v106l-70.63,23.54V224.27H1748.6q100.07,0,100.07,100.06,0,78.89-62.16,95.59l83.58,134h-83.35L1706,424.4Zm0-70.64h64.75q29.43,0,29.43-29.43T1748.6,294.9h-64.75Z"/><path class="cls-1" d="M2048.19,550.29q-68.3,0-116.55-48.26t-48.27-116.55q0-68.28,48.27-116.55t116.55-48.26q68.28,0,116.54,48.26T2213,385.48q0,68.28-48.27,116.55T2048.19,550.29Zm0-70.63q39.07,0,66.63-27.55t27.55-66.63q0-39.08-27.55-66.63t-66.63-27.55q-39.09,0-66.64,27.55T1954,385.48q0,39.09,27.54,66.63T2048.19,479.66Z"/><path class="cls-1" d="M961.11,683l-72.9-62.77H556.54l-75.3-445.36-38.17-.25L316.65,400.55h-70s13.61,37.74,12.45,59.11a208.38,208.38,0,0,0,1.1,35.25L234,540.82h36.92c28.58,79.86,104.92,138.66,197.65,142.71l1.23,0h9.95L490,701.33l89.09,52.31-11.87-70.19ZM436.21,335.16,480,549.63,390.18,412.36ZM346.9,485.91l9.51-16.15,85.17,147.63C388.61,604.22,357.3,547.29,346.9,485.91Z"/><path class="cls-1" d="M2065.32,365.49c10.89,5.86,6.19,23.06-8.82,23.06a19.15,19.15,0,0,1,0-38.3h.59a27.82,27.82,0,0,0-8.9-1.46c-17.57,0-31.8,16.42-31.8,36.68s14.23,36.68,31.8,36.68,31.8-16.42,31.8-36.68C2080,378.57,2076.21,366.29,2065.32,365.49Z"/></svg>