<svg id="Camada_1" data-name="Camada 1" xmlns="http://www.w3.org/2000/svg" viewBox="0 0 85.51 22.87"><defs><style>.cls-1{fill:#012d8a;}.cls-2{fill:#019be0;}</style></defs><title>paypal</title><path class="cls-1" d="M0,16.42c1.07-2,.9-4.26,1.31-6.39.56-2.85.95-5.73,1.38-8.6C2.8.67,3,.05,3.88.07c2.73.06,5.48-.26,8.19.19C15,.76,16.38,2.65,16,5.6q-.81,6.51-7.4,6.7a16.26,16.26,0,0,1-1.71,0c-1.09-.11-1.56.43-1.69,1.44S4.88,15.87,4.77,17,4.15,18.61,3,18.47c-1-.12-2.05.28-3-.34ZM7.51,8.68c.44,0,.66,0,.89,0a2.74,2.74,0,0,0,2.79-3c0-1.36-.87-1.85-2.84-1.95C7.21,3.62,6.65,4,6.58,5.13A9.72,9.72,0,0,1,6.3,7C5.94,8.29,6.2,9,7.51,8.68Z"/><path class="cls-2" d="M55.07.05A24.64,24.64,0,0,1,59.85.3a4.27,4.27,0,0,1,3.59,5.13c-.61,4.7-3,6.81-7.74,6.87-2.78,0-2.78,0-3.25,2.81,0,.23-.06.46-.09.68-.36,2.62-1.51,3.35-4.14,2.67-.7-.18-.71-.61-.62-1.16C48.44,12,49.3,6.74,50.11,1.44A1.42,1.42,0,0,1,51.83,0C52.91.1,54,.06,55.07.05Zm-.18,8.62,1-.05a2.66,2.66,0,0,0,2.64-3.07c-.11-1.78-1.42-1.75-2.7-1.86S54,3.86,54,5.2a7.73,7.73,0,0,1-.32,2C53.39,8.47,53.89,8.87,54.89,8.67Z"/><path class="cls-1" d="M26.55,18.45c-.58-.13-1.6.45-1.95-.8-.09-.3-.38-.15-.58,0s-.57.37-.88.51c-2.06.91-4.14,1-6-.35s-2.26-3.43-1.83-5.67a7.19,7.19,0,0,1,8.61-6,3.46,3.46,0,0,1,1.69.75c.38.36.6.57.92-.13.25-.54,3.36-.72,3.84-.37s.21.82.15,1.25c-.49,3.15-1,6.29-1.44,9.44C28.88,18.66,27.82,18.5,26.55,18.45Zm-4.36-3a3.55,3.55,0,0,0,3.62-3.49A2.51,2.51,0,0,0,23,9.23a3.61,3.61,0,0,0-3.61,3.69A2.42,2.42,0,0,0,22.19,15.43Z"/><path class="cls-2" d="M72.12,17.1a7.61,7.61,0,0,1-3.32,1.59,5,5,0,0,1-6.13-4.23,7.35,7.35,0,0,1,8.7-8.35,3.82,3.82,0,0,1,1.55.65c.56.46.58.54,1.19-.15.83-1,2.41-.55,3.55-.24.86.23.29,1.29.19,2-.43,2.93-.94,5.84-1.36,8.77-.15,1.07-.72,1.56-1.73,1.33S72.2,19.36,72.12,17.1Zm-2.77-1.67A3.57,3.57,0,0,0,73.24,12a2.49,2.49,0,0,0-2.5-2.8,3.68,3.68,0,0,0-3.93,3.58A2.49,2.49,0,0,0,69.35,15.43Z"/><path class="cls-1" d="M38.75,13.16l4-5.92c.6-.86,3.7-1.51,4.49-.91s0,1-.25,1.41c-2.7,3.95-5.43,7.87-8.15,11.8A6.17,6.17,0,0,0,38,20.8c-.86,2.35-2.8,2.11-4.68,2-.7,0-1.15-.31-.57-1.07a3.58,3.58,0,0,1,.29-.43c3-2.69,2.86-5.73,1.19-9.08a40.67,40.67,0,0,1-1.65-4.65c-.32-.91-.16-1.34.94-1.39,3-.13,3-.17,3.88,2.67C37.82,10.22,38.25,11.56,38.75,13.16Z"/><path class="cls-2" d="M80.85,18.46c-2.25,0-2.24,0-1.91-2.1l2.37-15c.08-.54,0-1.28.83-1.26,1.07,0,2.18-.33,3.18.24.34.19.14.61.08,1C84.6,6.34,83.75,11.39,83,16.46,82.8,18,82.31,18.85,80.85,18.46Z"/></svg>