<svg id="Camada_1" data-name="Camada 1" xmlns="http://www.w3.org/2000/svg" viewBox="0 0 147.94 43.47"><defs><style>.cls-1{fill:#fff;}</style></defs><title>ícones</title><path class="cls-1" d="M79.83,43.47a6.07,6.07,0,0,1-1.7-.26c-2.46-.69-3.34-2.21-2.69-4.66.74-2.8,1.49-5.59,2.22-8.28l.21-.77a17,17,0,0,1-4.12,2.08,5.33,5.33,0,0,1-1.56.25c-2.1,0-3.3-1.48-4.09-3.16a8.82,8.82,0,0,1-5.78,3.06c-.24,0-.48,0-.71,0-2.6,0-4-1.27-5.25-3.54a4.25,4.25,0,0,1-.62.78A10.28,10.28,0,0,1,48.41,32a12.34,12.34,0,0,1-2.72-.31c-3.14-.7-4.81-2.86-4.59-5.91A47.15,47.15,0,0,1,42,20.19c.14-.71.28-1.41.4-2.11.06-.34.14-.67.22-1l-3.33.38-.29-.7c-.59-1.43-1.26-3.52-.35-5.1.65-1.14,2-1.81,4.07-2.09,1.7-.24,2.3-.8,2.48-2.31a14,14,0,0,1,.6-2.4c.1-.31.2-.62.28-.94C46.53,2.2,47.13.66,49.21.66A8.6,8.6,0,0,1,51,.9c1.7.36,2.79.75,3.34,1.7s.34,2.05-.19,3.65l-.68,2.11.72.07c1.46.13,2.86.27,4.26.36a2.78,2.78,0,0,1,2.2,1,2.8,2.8,0,0,1,.33,2.4l0,.21c-.11.48-.22,1-.3,1.44-.36,2.1-1.46,3.12-3.36,3.12a6,6,0,0,1-1-.08,29.44,29.44,0,0,0-3.83-.43c-1.64,0-1.84.32-3.11,4.93l-.14.49c-.49,1.69-.62,2.5.21,3.18a2.25,2.25,0,0,0,1.44.53,3.84,3.84,0,0,0,2.33-1A17.83,17.83,0,0,0,57,19.88c2.91-5.08,6.68-7.75,11.53-8.15.34,0,.67,0,1,0a26.48,26.48,0,0,1,5.21.69,3,3,0,0,1,2.08,1.36A3.22,3.22,0,0,1,77,16.47c-.94,3-1.66,5.57-2.21,8A2.81,2.81,0,0,0,75,25.54a3,3,0,0,0,1-.25,15.54,15.54,0,0,0,3.23-4.1,62.52,62.52,0,0,0,2.7-7.34l.36-1.1c.4-1.24,1.18-2.88,3.37-2.88a6.93,6.93,0,0,1,1.85.29c1.34.37,2.34.79,2.84,1.69a2.61,2.61,0,0,1,.3,1.45q.44-.29.87-.54a8.15,8.15,0,0,1,4-1.18,5.05,5.05,0,0,1,3.69,1.48,6.65,6.65,0,0,1,1.69,4.9,23.83,23.83,0,0,1-1.07,5.8c-.09.32-.17.65-.26,1a5.21,5.21,0,0,0,2.2-2,10.78,10.78,0,0,0,.76-1.56c.08-.19.16-.39.25-.58a14.58,14.58,0,0,1,13.55-9,15.86,15.86,0,0,1,3.53.4,4.3,4.3,0,0,1,2.87,1.68,4.29,4.29,0,0,1,.19,3.33c-.3,1.15-.63,2.28-1,3.41-.41,1.39-.84,2.82-1.17,4.23a2.2,2.2,0,0,0,.08,1.06h0a2.14,2.14,0,0,0,1.05-.32,9.81,9.81,0,0,0,2.25-2.41c.58-.86,1.11-1.8,1.63-2.7A37.46,37.46,0,0,1,128,16.62a27.08,27.08,0,0,1,4.61-5,7.47,7.47,0,0,1,4.75-1.7,9.22,9.22,0,0,1,2.83.47c1,.33,1.75.63,2.1,1.37s.06,1.53-.4,2.7A4.72,4.72,0,0,0,142,17.1l.73.09c.33,0,.67.07.94.12s.85.13,1.32.2c1.84.24,2.85.37,2.94,1.39a13.13,13.13,0,0,1-.76,4.82c-.36,1.21-2.33,1.39-2.42,1.39l-.31,0a6.46,6.46,0,0,1-1.19-.14c0,.1-.07.21-.1.31a11.58,11.58,0,0,1-1,2.52c-1.39,2.33-4.59,3.95-7.77,3.95a7.86,7.86,0,0,1-2.75-.47,5.52,5.52,0,0,1-3.45-3.72,5.89,5.89,0,0,1,1.24-5.23,15.41,15.41,0,0,1,3.33-2.8c.35-.25.71-.49,1.06-.75l-.6-1.4-.18.17a15.86,15.86,0,0,0-1.95,2c-.78,1.07-1.52,2.21-2.23,3.32s-1.42,2.22-2.2,3.29A18.21,18.21,0,0,1,123,30.14a7.06,7.06,0,0,1-4.21,1.67c-1.36,0-3.2-.59-4.67-3.19a8.71,8.71,0,0,1-6.07,3.07l-.57,0c-2.86,0-4.25-1.36-5.35-3.61l-1,.21c-1.52.32-3,.62-4.4,1a3.47,3.47,0,0,0-.72.34,7,7,0,0,1-.82.42c-.38.15-.77.33-1.15.51a11.1,11.1,0,0,1-3.39,1.13l-.53,0a4.56,4.56,0,0,1-3.36-1.41,4.86,4.86,0,0,1-.65-.91q-.81,3-1.57,6c-.45,1.74-.89,3.47-1.35,5.21A3.34,3.34,0,0,1,79.83,43.47Zm53-17.62.21.21A1.27,1.27,0,0,0,134,25C133,25.2,132.88,25.35,132.85,25.85Zm-68.78-.47c.05.12.13.32.2.45a1.41,1.41,0,0,0,.61-.21c1.25-2.13,2.53-4.55,3.88-7.32,0,0-.05-.11-.09-.24a1.67,1.67,0,0,0-.54.12c-2.24,1.29-3.45,3.35-4.12,7.06Zm50.53-7.3a8.75,8.75,0,0,0-3.41,3.13c-1.06,1.6-1.51,3.23-1.14,4.15.12.29.24.39.27.4a.7.7,0,0,0,.24-.18A16.25,16.25,0,0,0,114.6,18.08Zm-23.08-.44a1.06,1.06,0,0,0-.7.47,16.31,16.31,0,0,0-2.91,5.11,5.16,5.16,0,0,1,2.51-.63,5.58,5.58,0,0,1,.7,0,8,8,0,0,1,1.57.38,5.85,5.85,0,0,0-.23-4.4C92.2,18,91.83,17.64,91.52,17.64Z"/><path d="M79.49,27.31c-2,1.12-3.86,2.66-6,3.31-2.5.76-3.89-.55-5-3.79-1.72,1.91-3.46,3.71-6.19,3.9S58.09,30,56.44,26a12.1,12.1,0,0,1-1.39,2.24,9.49,9.49,0,0,1-9.14,2.48c-2.58-.57-4-2.23-3.81-4.86a72,72,0,0,1,1.26-7.64c.12-.69.32-1.38.56-2.35l-4,.46c-1.51-3.67-.74-5.32,2.93-5.82,2.05-.28,3.09-1.13,3.34-3.18A21.47,21.47,0,0,1,47,4.17c.69-2.47,1.26-2.82,3.74-2.3,3,.63,3.33,1.24,2.4,4.06C52.82,7,52.49,8,52.1,9.24c2.19.2,4.22.41,6.25.55,1.46.09,1.93.81,1.62,2.17-.13.57-.27,1.14-.37,1.71-.31,1.86-1.2,2.53-3.22,2.22C50,15,50,15,48.32,21.12c-.44,1.61-1.18,3.41.41,4.7s3.69.68,5-.46a18.75,18.75,0,0,0,4.09-5c2.44-4.26,5.74-7.24,10.76-7.65a21,21,0,0,1,5.93.63c1.38.28,2,1.26,1.49,2.8-.84,2.66-1.61,5.34-2.24,8.05a6.83,6.83,0,0,0,.43,2.48c.84-.22,1.93-.17,2.45-.7a16.41,16.41,0,0,0,3.44-4.38,76.36,76.36,0,0,0,3.1-8.55c.66-2,1.65-2.58,4-1.94s2.79,1.3,2.13,3.5c0,.18,0,.37-.13.85,1-.7,1.88-1.32,2.78-1.84,4.19-2.43,7.94-.51,7.87,4.32-.05,2.68-1.08,5.35-1.69,8.13a5.65,5.65,0,0,0,4.4-2.81A16.86,16.86,0,0,0,103.66,21a13.72,13.72,0,0,1,16-8.07c2.25.51,2.9,1.49,2.3,3.79-.67,2.57-1.53,5.08-2.15,7.66-.16.68,0,1.91.49,2.16a2.56,2.56,0,0,0,2.23-.39,10.55,10.55,0,0,0,2.5-2.66c1.36-2,2.42-4.3,3.86-6.28a26,26,0,0,1,4.43-4.81,6.76,6.76,0,0,1,6.63-1.05c1.91.63,1.83.87,1.09,2.75a6.08,6.08,0,0,0,.14,3.67c.1.37,1.52.37,2.33.52,1.21.23,3.43.37,3.45.7a12.44,12.44,0,0,1-.71,4.44c-.11.36-1,.64-1.55.69a10.15,10.15,0,0,1-2.09-.27,21.51,21.51,0,0,1-1.3,3.45c-1.68,2.8-6.23,4.23-9.31,3.06A4.54,4.54,0,0,1,130.17,23c1.21-1.48,3-2.46,4.84-3.86l-1.48-3.44A33.94,33.94,0,0,0,130.24,19c-1.56,2.14-2.87,4.47-4.43,6.61a17.6,17.6,0,0,1-3.37,3.72c-3.46,2.62-6.33,1.7-8-2.57-1.66,2.14-3.58,3.77-6.36,3.91s-4-.79-5.3-3.73c-2.13.46-4.17.86-6.19,1.35a15.19,15.19,0,0,0-1.68.81,16.84,16.84,0,0,1-4.27,1.57,3.51,3.51,0,0,1-4-3.73A3.69,3.69,0,0,1,91,23.62a16,16,0,0,1,2.27.61,7,7,0,0,0,.11-6c-.74-1.71-2.21-2.14-3.34-.73a17.5,17.5,0,0,0-3.15,5.65c-1.72,5.7-3.09,11.5-4.62,17.26-.49,1.87-1.74,2.46-3.88,1.86-1.93-.54-2.5-1.5-2-3.45C77.45,34.88,78.51,31,79.49,27.31ZM63,25.37c.2.35.41,1.25.88,1.41a2,2,0,0,0,1.83-.58c1.44-2.42,2.74-4.93,4-7.46.21-.45-.14-1.18-.23-1.78a6.12,6.12,0,0,0-1.8.35C64.68,19,63.57,21.84,63,25.37Zm53-8.62c-3.73.07-8,6.07-6.82,9,.44,1.09,1.35,1.36,2.15.54A18.19,18.19,0,0,0,115.94,16.75Zm19.14,7c-1.55.4-3.22.25-3.23,2.25,0,.39.84,1.17,1.15,1.11C134.6,26.78,135.2,25.63,135.08,23.75Z"/><path class="cls-1" d="M32,16A16,16,0,1,1,15.51,0,16,16,0,0,1,32,16ZM8.44,24.07a4.74,4.74,0,0,0,2-1.07.4.4,0,0,1,.53-.06,10.44,10.44,0,0,0,5.93,1.18,9.65,9.65,0,0,0,6.73-3.29,7,7,0,0,0,1.72-6.13,7.85,7.85,0,0,0-3.7-5.23A10.55,10.55,0,0,0,8.49,11a7.28,7.28,0,0,0-2,5,7.06,7.06,0,0,0,1.93,4.93,1.46,1.46,0,0,1,.4,1.35C8.72,22.86,8.58,23.45,8.44,24.07Z"/><path class="cls-1" d="M9.22,13.46h3.59v.88H10.13v1.09H12.7v.87H10.12v1.09h2.7v.89H9.22Z"/><path class="cls-1" d="M16.84,13.47h.9v4.79A.64.64,0,0,1,17,18c-.63-.85-1.29-1.68-1.94-2.52l-.37-.45v3.23h-.9v-4.8a.93.93,0,0,1,1.06.37c.61.86,1.3,1.67,2,2.58Z"/><path class="cls-1" d="M22.74,14.06l-.59.51a1.87,1.87,0,0,0-1.76-.31,1.73,1.73,0,0,0-1.06,1.93,1.48,1.48,0,0,0,1.53,1.36h.07c.87-.06,1.3-.16,1.13-1.22h-1.2V15.5h2a14.35,14.35,0,0,1,0,2c0,.24-.39.47-.64.62a2.67,2.67,0,0,1-3.46-.77,2.77,2.77,0,0,1,.83-3.65A2.63,2.63,0,0,1,22.74,14.06Z"/></svg>